<?xml version="1.0" encoding="UTF-8"?>
<svg version="1.1" xmlns="http://www.w3.org/2000/svg" width="1102" height="1102">
<path d="M0 0 C1.50530273 0.65452148 1.50530273 0.65452148 3.04101562 1.32226562 C45.65292383 20.01169905 85.60292799 44.01118159 122 73 C122.57186035 73.45407227 123.1437207 73.90814453 123.73291016 74.37597656 C126.86155155 76.87133402 129.93902441 79.42233634 133 82 C134.02841846 82.85444042 135.05707794 83.70859078 136.0859375 84.5625 C145.91275494 92.75641373 155.44366693 101.27991508 164.39453125 110.4296875 C166.19387734 112.18963185 168.08194125 113.80806342 170 115.4375 C173.38694553 118.35638396 176.26554886 121.49215105 179.15234375 124.8984375 C181.1780441 127.20251105 183.31422567 129.34751158 185.5 131.5 C189.54820141 135.50731049 193.31306302 139.66110465 197 144 C197.79921875 144.92167969 198.5984375 145.84335938 199.421875 146.79296875 C206.41924397 154.90475741 212.95689692 163.32741206 219.39892578 171.88427734 C220.90743922 173.87768653 222.43278858 175.85668849 223.96484375 177.83203125 C287.7351523 260.58045209 324.2636762 365.439257 327.80249023 576.37866211 C321.03433064 627.65610047 307.67512831 677.55823244 287 725 C286.56365234 726.00353516 286.12730469 727.00707031 285.67773438 728.04101562 C265.05052752 775.07104726 237.85436965 818.56419231 205 858 C204.2869873 858.86165771 204.2869873 858.86165771 203.55957031 859.74072266 C195.02655294 870.04423663 186.13759565 880.03523251 176.5703125 889.39453125 C174.81036815 891.19387734 173.19193658 893.08194125 171.5625 895 C168.64361604 898.38694553 165.50784895 901.26554886 162.1015625 904.15234375 C159.79748895 906.1780441 157.65248842 908.31422567 155.5 910.5 C151.49268951 914.54820141 147.33889535 918.31306302 143 922 C142.07832031 922.79921875 141.15664063 923.5984375 140.20703125 924.421875 C132.09524259 931.41924397 123.67258794 937.95689692 115.11572266 944.39892578 C113.12231347 945.90743922 111.14331151 947.43278858 109.16796875 948.96484375 C26.41954791 1012.7351523 -78.439257 1049.2636762 -289.37866211 1052.80249023 C-340.65610047 1046.03433064 -390.55823244 1032.67512831 -438 1012 C-439.00353516 1011.56365234 -440.00707031 1011.12730469 -441.04101562 1010.67773438 C-483.65292383 991.98830095 -523.60292799 967.98881841 -560 939 C-560.85779053 938.3188916 -560.85779053 938.3188916 -561.73291016 937.62402344 C-564.86155155 935.12866598 -567.93902441 932.57766366 -571 930 C-572.02841846 929.14555958 -573.05707794 928.29140922 -574.0859375 927.4375 C-583.91275494 919.24358627 -593.44366693 910.72008492 -602.39453125 901.5703125 C-604.19387734 899.81036815 -606.08194125 898.19193658 -608 896.5625 C-611.38694553 893.64361604 -614.26554886 890.50784895 -617.15234375 887.1015625 C-619.1780441 884.79748895 -621.31422567 882.65248842 -623.5 880.5 C-627.54820141 876.49268951 -631.31306302 872.33889535 -635 868 C-635.79921875 867.07832031 -636.5984375 866.15664063 -637.421875 865.20703125 C-644.9981896 856.4250446 -652.03926367 847.27367078 -659 838 C-659.85730713 836.86618896 -659.85730713 836.86618896 -660.73193359 835.70947266 C-723.99145842 751.95817213 -761.68474389 649.61800806 -765.25 431.50390625 C-758.23152358 381.63740251 -745.1332893 333.19844757 -725 287 C-724.34547852 285.49469727 -724.34547852 285.49469727 -723.67773438 283.95898438 C-704.98830095 241.34707617 -680.98881841 201.39707201 -652 165 C-651.54592773 164.42813965 -651.09185547 163.8562793 -650.62402344 163.26708984 C-648.12866598 160.13844845 -645.57766366 157.06097559 -643 154 C-642.14555958 152.97158154 -641.29140922 151.94292206 -640.4375 150.9140625 C-632.24358627 141.08724506 -623.72008492 131.55633307 -614.5703125 122.60546875 C-612.81036815 120.80612266 -611.19193658 118.91805875 -609.5625 117 C-606.64361604 113.61305447 -603.50784895 110.73445114 -600.1015625 107.84765625 C-597.79748895 105.8219559 -595.65248842 103.68577433 -593.5 101.5 C-589.49268951 97.45179859 -585.33889535 93.68693698 -581 90 C-580.07832031 89.20078125 -579.15664063 88.4015625 -578.20703125 87.578125 C-570.09524259 80.58075603 -561.67258794 74.04310308 -553.11572266 67.60107422 C-551.12231347 66.09256078 -549.14331151 64.56721142 -547.16796875 63.03515625 C-464.41954791 -0.7351523 -359.560743 -37.2636762 0 0 Z " fill="#B8241C" transform="translate(770,45)"/>
<path d="M0 0 C1.50530273 0.65452148 1.50530273 0.65452148 3.04101562 1.32226562 C45.65292383 20.01169905 85.60292799 44.01118159 122 73 C122.57186035 73.45407227 123.1437207 73.90814453 123.73291016 74.37597656 C126.86155155 76.87133402 129.93902441 79.42233634 133 82 C134.02841846 82.85444042 135.05707794 83.70859078 136.0859375 84.5625 C145.91275494 92.75641373 155.44366693 101.27991508 164.39453125 110.4296875 C166.19387734 112.18963185 168.08194125 113.80806342 170 115.4375 C173.38694553 118.35638396 176.26554886 121.49215105 179.15234375 124.8984375 C181.1780441 127.20251105 183.31422567 129.34751158 185.5 131.5 C189.54820141 135.50731049 193.31306302 139.66110465 197 144 C197.79921875 144.92167969 198.5984375 145.84335938 199.421875 146.79296875 C206.41924397 154.90475741 212.95689692 163.32741206 219.39892578 171.88427734 C220.90743922 173.87768653 222.43278858 175.85668849 223.96484375 177.83203125 C287.7351523 260.58045209 324.2636762 365.439257 327.80249023 576.37866211 C321.03433064 627.65610047 307.67512831 677.55823244 287 725 C286.56365234 726.00353516 286.12730469 727.00707031 285.67773438 728.04101562 C265.05052752 775.07104726 237.85436965 818.56419231 205 858 C204.2869873 858.86165771 204.2869873 858.86165771 203.55957031 859.74072266 C195.02655294 870.04423663 186.13759565 880.03523251 176.5703125 889.39453125 C174.81036815 891.19387734 173.19193658 893.08194125 171.5625 895 C168.64361604 898.38694553 165.50784895 901.26554886 162.1015625 904.15234375 C159.79748895 906.1780441 157.65248842 908.31422567 155.5 910.5 C151.49268951 914.54820141 147.33889535 918.31306302 143 922 C142.07832031 922.79921875 141.15664063 923.5984375 140.20703125 924.421875 C132.09524259 931.41924397 123.67258794 937.95689692 115.11572266 944.39892578 C113.12231347 945.90743922 111.14331151 947.43278858 109.16796875 948.96484375 C26.41954791 1012.7351523 -78.439257 1049.2636762 -289.37866211 1052.80249023 C-340.65610047 1046.03433064 -390.55823244 1032.67512831 -438 1012 C-439.00353516 1011.56365234 -440.00707031 1011.12730469 -441.04101562 1010.67773438 C-483.65292383 991.98830095 -523.60292799 967.98881841 -560 939 C-560.85779053 938.3188916 -560.85779053 938.3188916 -561.73291016 937.62402344 C-564.86155155 935.12866598 -567.93902441 932.57766366 -571 930 C-572.02841846 929.14555958 -573.05707794 928.29140922 -574.0859375 927.4375 C-583.91275494 919.24358627 -593.44366693 910.72008492 -602.39453125 901.5703125 C-604.19387734 899.81036815 -606.08194125 898.19193658 -608 896.5625 C-611.38694553 893.64361604 -614.26554886 890.50784895 -617.15234375 887.1015625 C-619.1780441 884.79748895 -621.31422567 882.65248842 -623.5 880.5 C-627.54820141 876.49268951 -631.31306302 872.33889535 -635 868 C-635.79921875 867.07832031 -636.5984375 866.15664063 -637.421875 865.20703125 C-644.9981896 856.4250446 -652.03926367 847.27367078 -659 838 C-659.85730713 836.86618896 -659.85730713 836.86618896 -660.73193359 835.70947266 C-723.99145842 751.95817213 -761.68474389 649.61800806 -765.25 431.50390625 C-758.23152358 381.63740251 -745.1332893 333.19844757 -725 287 C-724.34547852 285.49469727 -724.34547852 285.49469727 -723.67773438 283.95898438 C-704.98830095 241.34707617 -680.98881841 201.39707201 -652 165 C-651.54592773 164.42813965 -651.09185547 163.8562793 -650.62402344 163.26708984 C-648.12866598 160.13844845 -645.57766366 157.06097559 -643 154 C-642.14555958 152.97158154 -641.29140922 151.94292206 -640.4375 150.9140625 C-632.24358627 141.08724506 -623.72008492 131.55633307 -614.5703125 122.60546875 C-612.81036815 120.80612266 -611.19193658 118.91805875 -609.5625 117 C-606.64361604 113.61305447 -603.50784895 110.73445114 -600.1015625 107.84765625 C-597.79748895 105.8219559 -595.65248842 103.68577433 -593.5 101.5 C-589.49268951 97.45179859 -585.33889535 93.68693698 -581 90 C-580.07832031 89.20078125 -579.15664063 88.4015625 -578.20703125 87.578125 C-570.09524259 80.58075603 -561.67258794 74.04310308 -553.11572266 67.60107422 C-551.12231347 66.09256078 -549.14331151 64.56721142 -547.16796875 63.03515625 C-464.41954791 -0.7351523 -359.560743 -37.2636762 0 0 Z M-290 -4 C-291.17836426 -3.83983398 -292.35672852 -3.67966797 -293.57080078 -3.51464844 C-308.59001649 -1.4650901 -323.29348895 1.68046936 -338.01367188 5.27392578 C-340.74006501 5.93680129 -343.47026848 6.5792588 -346.203125 7.21484375 C-418.34258691 24.25136343 -488.46815821 60.13920762 -545 108 C-546.04251137 108.86903855 -547.08550528 109.73749848 -548.12890625 110.60546875 C-555.10044261 116.42733859 -561.85725497 122.44460092 -568.51171875 128.625 C-570.01004029 130.00927606 -571.518689 131.38130727 -573.03125 132.75 C-581.83812818 140.72857854 -590.47512161 148.86658045 -598.19921875 157.91796875 C-600.37324202 160.43153578 -602.62390488 162.86776229 -604.875 165.3125 C-609.7919433 170.71670795 -614.46088689 176.27662579 -619 182 C-619.51578613 182.64855957 -620.03157227 183.29711914 -620.56298828 183.96533203 C-665.68344046 240.86426782 -699.8598848 306.65126003 -717.32519531 377.30078125 C-717.96317172 379.85268689 -718.62826747 382.39555242 -719.3046875 384.9375 C-725.90204855 409.95566822 -729.27504009 435.25209794 -731.79046631 460.94818115 C-731.93632185 462.37644381 -732.09540565 463.80339167 -732.26470947 465.22906494 C-733.08331623 472.43878395 -733.1776187 479.60033507 -733.203125 486.8515625 C-733.21005249 488.18580153 -733.21704766 489.52004022 -733.22410583 490.85427856 C-733.2433397 495.11118892 -733.24802462 499.36805133 -733.25 503.625 C-733.25073643 504.34679947 -733.25147285 505.06859894 -733.2522316 505.81227112 C-733.26990443 527.02011499 -732.9691174 547.95738589 -730 569 C-729.76895525 570.79289462 -729.53845439 572.58585944 -729.30859375 574.37890625 C-728.65031759 579.27337749 -727.84648652 584.13498786 -727 589 C-726.74911621 590.47968262 -726.74911621 590.47968262 -726.49316406 591.98925781 C-722.75813955 613.84680769 -718.5551492 635.97642203 -711.09765625 656.91015625 C-710.03662461 659.89690368 -709.13259832 662.89392104 -708.25 665.9375 C-696.71583076 703.50333182 -679.24661409 739.44254751 -659 773 C-658.53174805 773.77633789 -658.06349609 774.55267578 -657.58105469 775.35253906 C-648.83387249 789.77003803 -639.29646286 803.64431642 -629 817 C-628.37424072 817.81500977 -628.37424072 817.81500977 -627.73583984 818.64648438 C-618.23663336 830.99298914 -608.16134233 842.78247574 -597.57421875 854.20703125 C-595.22447983 856.75644449 -592.92129068 859.34005644 -590.625 861.9375 C-583.240307 870.15744553 -575.43933528 878.11400778 -567.01171875 885.26953125 C-564.51716397 887.41533274 -562.10781018 889.64585677 -559.6875 891.875 C-554.28499945 896.79513443 -548.71013746 901.44257746 -543 906 C-542.22946289 906.6199585 -542.22946289 906.6199585 -541.44335938 907.25244141 C-514.1969711 929.1533321 -484.8542667 947.64723865 -454 964 C-453.11957031 964.46696289 -452.23914063 964.93392578 -451.33203125 965.41503906 C-420.60252217 981.57214641 -387.5586997 994.15682913 -354 1003 C-352.66582031 1003.36254883 -352.66582031 1003.36254883 -351.3046875 1003.73242188 C-327.85939487 1010.08906812 -303.9627696 1014.29577856 -279.875 1017.3125 C-277.96654297 1017.55154053 -277.96654297 1017.55154053 -276.01953125 1017.79541016 C-258.09818653 1019.93193219 -240.34198433 1020.23891459 -222.3125 1020.25 C-220.38588531 1020.25200912 -220.38588531 1020.25200912 -218.42034912 1020.25405884 C-197.46923271 1020.24932976 -176.80210645 1019.51616874 -156 1017 C-155.01725098 1016.88253418 -154.03450195 1016.76506836 -153.02197266 1016.64404297 C-147.31417172 1015.93225149 -141.66157791 1015.01013895 -136 1014 C-135.0193457 1013.83274414 -134.03869141 1013.66548828 -133.02832031 1013.49316406 C-107.56749339 1009.14505937 -82.41379508 1003.5018392 -58 995 C-56.88608887 994.61360352 -55.77217773 994.22720703 -54.62451172 993.82910156 C-18.71752765 981.26385045 15.39359329 965.67280841 48 946 C48.77633789 945.53174805 49.55267578 945.06349609 50.35253906 944.58105469 C64.77003803 935.83387249 78.64431642 926.29646286 92 916 C92.54333984 915.58282715 93.08667969 915.1656543 93.64648438 914.73583984 C105.93833682 905.27868199 117.69325119 895.25683266 129.06640625 884.71484375 C131.0449562 882.88382881 133.02867752 881.06252905 135.02734375 879.25390625 C143.83515782 871.27354862 152.4738712 863.13488483 160.19921875 854.08203125 C162.37324202 851.56846422 164.62390488 849.13223771 166.875 846.6875 C171.79513443 841.28499945 176.44257746 835.71013746 181 830 C181.41330566 829.48630859 181.82661133 828.97261719 182.25244141 828.44335938 C217.96494131 784.01426961 245.58072962 734.00124663 265.07910156 680.48925781 C266.24340904 677.34204703 267.49436483 674.23679151 268.75 671.125 C271.52295562 663.95914905 273.46362682 656.57275421 275.42675781 649.15332031 C275.93559208 647.24194117 276.4625865 645.3354171 276.9921875 643.4296875 C280.40345631 631.05326596 283.22672924 618.53222775 286 606 C286.19625977 605.12666016 286.39251953 604.25332031 286.59472656 603.35351562 C289.27741279 591.23030561 290.81325055 579.01474147 292.1875 566.6875 C292.27235657 565.92963196 292.35721313 565.17176392 292.44464111 564.39093018 C294.53841403 545.47210478 295.21190692 526.72761956 295.24023438 507.69628906 C295.2498765 503.79990765 295.28095934 499.90406945 295.3125 496.0078125 C295.37969744 479.86351653 294.401447 464.10802494 292.38261414 448.09170532 C291.87591959 443.99737094 291.43189876 439.89719649 290.99240112 435.79518127 C289.34166111 421.0003971 286.23247623 406.51760253 283 392 C282.78585449 391.02369629 282.57170898 390.04739258 282.35107422 389.04150391 C279.49234387 376.09069402 275.90525626 363.42287622 271.88525391 350.78613281 C271.31637782 348.99572634 270.75307463 347.20353435 270.19677734 345.40917969 C251.08233772 283.78758185 217.56059395 224.57234637 175.44921875 175.8515625 C173.02699086 173.03142476 170.69768269 170.15235393 168.375 167.25 C164.85662257 162.9211392 161.09859641 158.99159736 157.10546875 155.1015625 C155.19598238 153.19561878 153.43356497 151.24219146 151.6875 149.1875 C145.10023073 141.52788457 137.80469781 134.37690124 130.11328125 127.83203125 C127.94379896 125.95127858 125.8357322 124.01129135 123.73193359 122.05761719 C117.68456088 116.44807196 111.46779545 111.12296842 105 106 C104.36884277 105.49629883 103.73768555 104.99259766 103.08740234 104.47363281 C57.98634081 68.54980445 7.35354454 40.27489271 -47 21 C-47.91120605 20.67080566 -48.82241211 20.34161133 -49.76123047 20.00244141 C-105.0432781 0.13406757 -162.75867982 -8.45997513 -221.375 -8.375 C-222.67273346 -8.37512085 -223.97046692 -8.3752417 -225.30752563 -8.37536621 C-247.12079932 -8.34661769 -268.42257956 -7.12843731 -290 -4 Z " fill="#B9241D" transform="translate(770,45)"/>
<path d="M0 0 C1.31427979 0.00115814 2.62855957 0.00231628 3.98266602 0.00350952 C25.07740529 0.03154681 45.9292256 0.76553264 66.875 3.3125 C68.30489258 3.48072266 68.30489258 3.48072266 69.76367188 3.65234375 C74.58171658 4.23964491 79.35737349 4.97046228 84.13476562 5.82617188 C86.16258034 6.18606201 88.19296808 6.53152093 90.22460938 6.86914062 C179.19407831 21.67388585 265.44091825 60.80462552 333.8828125 119.7578125 C336.75418941 122.20935362 339.67778357 124.57809405 342.625 126.9375 C346.9538608 130.45587743 350.88340264 134.21390359 354.7734375 138.20703125 C356.67938122 140.11651762 358.63280854 141.87893503 360.6875 143.625 C368.34711543 150.21226927 375.49809876 157.50780219 382.04296875 165.19921875 C383.92372142 167.36870104 385.86370865 169.4767678 387.81738281 171.58056641 C393.42666096 177.62765119 398.75613442 183.84176784 403.875 190.3125 C404.38933594 190.95960938 404.90367187 191.60671875 405.43359375 192.2734375 C452.21425956 251.26245259 486.1224241 319.08573814 503.875 392.3125 C504.15118164 393.45138672 504.42736328 394.59027344 504.71191406 395.76367188 C505.52689713 399.1525389 506.32956132 402.5439954 507.125 405.9375 C507.35912598 406.93056152 507.59325195 407.92362305 507.83447266 408.94677734 C511.23853316 423.77579215 513.40856378 438.63453247 515 453.75 C515.17005976 455.32232121 515.34063157 456.89458713 515.51171875 458.46679688 C515.89866931 462.04019449 516.2852685 465.61356911 516.65159607 469.18914795 C516.80604239 470.65708953 516.97135122 472.12391414 517.145401 473.58966064 C517.93104195 480.5430941 518.03633406 487.43636891 518.04296875 494.4296875 C518.04629715 495.68089386 518.04962555 496.93210022 518.05305481 498.22122192 C518.05810048 500.86870892 518.06089898 503.51609324 518.06030273 506.16357422 C518.06018323 510.11303554 518.08055756 514.06230325 518.09960938 518.01171875 C518.20817732 567.02899283 512.5349745 618.73100407 495.97265625 665.22265625 C494.91162461 668.20940368 494.00759832 671.20642104 493.125 674.25 C481.59083076 711.81583182 464.12161409 747.75504751 443.875 781.3125 C443.17262207 782.47700684 443.17262207 782.47700684 442.45605469 783.66503906 C433.70887249 798.08253803 424.17146286 811.95681642 413.875 825.3125 C413.45782715 825.85583984 413.0406543 826.39917969 412.61083984 826.95898438 C403.11273843 839.30405283 393.03847973 851.09192087 382.453125 862.515625 C380.08216782 865.08775431 377.75629113 867.69343376 375.4375 870.3125 C368.40840212 878.13520571 361.00106124 885.66214044 352.98828125 892.48046875 C350.81849536 894.36148461 348.7101713 896.30179987 346.60595703 898.25561523 C340.55836884 903.86603991 334.33265134 909.17434169 327.875 914.3125 C327.36275879 914.72435547 326.85051758 915.13621094 326.32275391 915.56054688 C281.9452583 951.23420608 231.95795561 978.90361367 178.48876953 998.34863281 C176.17643574 999.201341 173.88086093 1000.08410562 171.58984375 1000.9921875 C161.58663593 1004.94237123 151.39334493 1007.8269605 140.98388672 1010.51074219 C138.85131133 1011.06071687 136.72019012 1011.61635216 134.59033203 1012.17675781 C111.30909794 1018.2972374 88.10887465 1022.90419112 64.1875 1025.5625 C63.44008545 1025.64567474 62.6926709 1025.72884949 61.92260742 1025.81454468 C43.2912041 1027.85835846 24.83560555 1028.49899739 6.09619141 1028.49780273 C2.27885687 1028.49998351 -1.53818525 1028.51818273 -5.35546875 1028.53710938 C-20.0660992 1028.57139238 -34.51116678 1027.99869684 -49.125 1026.3125 C-50.51560584 1026.15941248 -51.90622968 1026.00648826 -53.296875 1025.85375977 C-134.97680736 1016.50769058 -212.39578945 988.57751087 -280.875 943 C-281.81418274 942.37555496 -281.81418274 942.37555496 -282.77233887 941.73849487 C-291.09729577 936.18683143 -299.18308271 930.40393863 -307.125 924.3125 C-308.12563477 923.54885132 -308.12563477 923.54885132 -309.14648438 922.76977539 C-321.37791826 913.38273994 -333.02597861 903.36402584 -344.33203125 892.88671875 C-346.88144449 890.53697983 -349.46505644 888.23379068 -352.0625 885.9375 C-360.28244553 878.552807 -368.23900778 870.75183528 -375.39453125 862.32421875 C-377.54033274 859.82966397 -379.77085677 857.42031018 -382 855 C-386.92013443 849.59749945 -391.56757746 844.02263746 -396.125 838.3125 C-396.7449585 837.54196289 -396.7449585 837.54196289 -397.37744141 836.75585938 C-433.08994131 792.32676961 -460.70572962 742.31374663 -480.20410156 688.80175781 C-481.36840904 685.65454703 -482.61936483 682.54929151 -483.875 679.4375 C-486.6445639 672.28041391 -488.58573546 664.90243022 -490.54736328 657.4921875 C-491.07448763 655.50310626 -491.61282551 653.51700535 -492.15234375 651.53125 C-492.9847868 648.4555568 -493.79900376 645.37583183 -494.60253906 642.29248047 C-495.14571197 640.23400743 -495.70967016 638.18182608 -496.2734375 636.12890625 C-503.19533929 610.35723241 -506.88743308 583.86198485 -509.125 557.3125 C-509.20677994 556.46156769 -509.28855988 555.61063538 -509.37281799 554.73391724 C-510.08593418 546.97320722 -510.31484801 539.26767561 -510.36328125 531.4765625 C-510.37783607 529.52441078 -510.37783607 529.52441078 -510.39268494 527.53282166 C-510.41985128 523.33439119 -510.43086015 519.13600757 -510.4375 514.9375 C-510.43894516 514.22287975 -510.44039032 513.50825951 -510.44187927 512.7719841 C-510.48009629 489.39124656 -509.54012709 466.47114302 -506.125 443.3125 C-505.80966256 441.0039381 -505.49454589 438.69534603 -505.1796875 436.38671875 C-503.1957287 422.51474453 -500.17273862 408.90564617 -496.85107422 395.29882812 C-496.18819871 392.57243499 -495.5457412 389.84223152 -494.91015625 387.109375 C-491.7208758 373.60934161 -487.55866676 360.45108719 -483.125 347.3125 C-482.81723633 346.39774902 -482.50947266 345.48299805 -482.19238281 344.54052734 C-462.34702325 286.2380791 -430.86110787 230.78285761 -390.578125 184.16796875 C-388.13553637 181.32476447 -385.78282084 178.42367377 -383.4375 175.5 C-380.16631806 171.47662114 -376.72219896 167.79664517 -373.00390625 164.1875 C-371.21280997 162.40012741 -369.57331641 160.55421837 -367.9375 158.625 C-360.99806843 150.5714395 -353.30656506 142.98708463 -345.203125 136.109375 C-343.0444388 134.24284182 -340.95003184 132.31418132 -338.85913086 130.37231445 C-332.81130813 124.76172974 -326.59359845 119.43610445 -320.125 114.3125 C-319.49384277 113.80879883 -318.86268555 113.30509766 -318.21240234 112.78613281 C-288.02303756 88.73974628 -255.52921008 68.72567381 -221.125 51.3125 C-220.35317383 50.91853027 -219.58134766 50.52456055 -218.78613281 50.11865234 C-167.24186128 24.00089115 -108.54960047 7.97179625 -51.125 2.3125 C-49.60399867 2.14384604 -48.0830031 1.9751401 -46.56201172 1.80639648 C-31.03899748 0.16021105 -15.59956358 -0.04261706 0 0 Z M-17.24707031 25.35498047 C-82.97416268 26.52223202 -149.2052431 44.95775072 -208.125 73.3125 C-209.02702148 73.73966309 -209.92904297 74.16682617 -210.85839844 74.60693359 C-234.27742992 85.72270352 -256.40792336 99.22734312 -277.5625 114.1875 C-278.28131348 114.69579346 -279.00012695 115.20408691 -279.74072266 115.7277832 C-292.97817354 125.14261542 -305.56702084 135.34123659 -317.875 145.9375 C-318.48907715 146.46384033 -319.1031543 146.99018066 -319.73583984 147.5324707 C-323.47938948 150.77590471 -327.02990606 154.14799065 -330.48852539 157.6940918 C-332.19763556 159.38433367 -333.97939336 160.94590502 -335.8125 162.5 C-343.54983074 169.18360866 -350.79855731 176.54945592 -357.42578125 184.33203125 C-359.40530432 186.63919952 -361.4514212 188.87896782 -363.5 191.125 C-367.76221447 195.85999792 -371.84829649 200.70569126 -375.8203125 205.68652344 C-376.7173623 206.80447846 -377.62142623 207.91682999 -378.53125 209.02441406 C-395.76633942 230.01845854 -411.29021772 253.37223243 -424.125 277.3125 C-424.84623047 278.65199707 -424.84623047 278.65199707 -425.58203125 280.01855469 C-429.18309702 286.73978441 -432.68165448 293.509284 -436.125 300.3125 C-436.51896973 301.08432617 -436.91293945 301.85615234 -437.31884766 302.65136719 C-462.78829124 352.91616234 -476.40204057 408.23538973 -482.73413086 463.93115234 C-483.03570079 466.5399865 -483.35780086 469.14288096 -483.703125 471.74609375 C-491.14923444 534.69329671 -482.07527576 603.43968893 -462.125 663.3125 C-461.80547363 664.28429199 -461.48594727 665.25608398 -461.15673828 666.25732422 C-438.88606399 733.72530045 -402.78608856 794.77806244 -354.49707031 846.82714844 C-353.08145762 848.35963734 -351.67618683 849.90104517 -350.2734375 851.4453125 C-343.29579262 859.12263552 -336.24890165 866.58532952 -328.3671875 873.34765625 C-326.20323646 875.24394087 -324.09952511 877.19581498 -321.99975586 879.16259766 C-316.143675 884.62878154 -310.04708429 889.6486051 -303.69921875 894.53125 C-301.40794397 896.29670896 -299.16465056 898.09986593 -296.95703125 899.96875 C-288.44035155 907.12056901 -279.36923506 913.33959912 -270.125 919.5 C-269.49682373 919.91966034 -268.86864746 920.33932068 -268.22143555 920.771698 C-229.38993298 946.65324646 -187.57821866 967.07119425 -143.125 981.3125 C-142.34447266 981.56515625 -141.56394531 981.8178125 -140.75976562 982.078125 C-64.68733526 1006.29762865 20.72483167 1010.73207046 98.875 994.3125 C100.62659424 993.95236816 100.62659424 993.95236816 102.41357422 993.58496094 C137.51840303 986.30880807 172.27875639 975.27810195 204.875 960.3125 C206.6077417 959.52020996 206.6077417 959.52020996 208.37548828 958.71191406 C241.98154454 943.2181247 273.74670239 924.18068834 302.875 901.3125 C303.77476562 900.61253906 304.67453125 899.91257812 305.6015625 899.19140625 C316.24359044 890.79602865 326.44475319 881.92143753 336.37353516 872.70068359 C337.91233619 871.27798072 339.4604366 869.86610854 341.01171875 868.45703125 C348.68487236 861.48393922 356.13913245 854.43884583 362.90234375 846.56640625 C364.83936333 844.35321754 366.82526805 842.19106103 368.82617188 840.03564453 C374.43354393 833.98791301 379.74080328 827.77086454 384.875 821.3125 C385.86455022 820.10023339 386.85413591 818.88799572 387.84375 817.67578125 C395.49808797 808.17996156 402.42878857 798.26708971 409.1875 788.125 C409.60343414 787.50241302 410.01936829 786.87982605 410.44790649 786.2383728 C433.02411636 752.36596856 450.49502142 716.32877019 464.875 678.3125 C465.23964355 677.36600586 465.60428711 676.41951172 465.97998047 675.44433594 C487.71852654 618.8328432 493.82969919 556.45854876 492.875 496.3125 C492.85397217 494.79052002 492.85397217 494.79052002 492.83251953 493.23779297 C491.65647049 427.48816459 473.24111646 361.25587732 444.875 302.3125 C444.44783691 301.41047852 444.02067383 300.50845703 443.58056641 299.57910156 C432.46479648 276.16007008 418.96015688 254.02957664 404 232.875 C403.49170654 232.15618652 402.98341309 231.43737305 402.4597168 230.69677734 C383.01064777 203.35097977 360.5580441 176.07427345 335.02734375 154.18359375 C332.49447838 151.98170171 330.03167478 149.71054174 327.5625 147.4375 C322.1581529 142.5204301 316.59693993 137.85356421 310.875 133.3125 C310.22112305 132.79139648 309.56724609 132.27029297 308.89355469 131.73339844 C298.50548198 123.47669608 287.93220337 115.64785196 276.875 108.3125 C276.21209961 107.86841797 275.54919922 107.42433594 274.86621094 106.96679688 C229.41714196 76.57997346 179.15508667 54.9130573 126.5 40.5625 C125.51596191 40.2929248 124.53192383 40.02334961 123.51806641 39.74560547 C107.20273123 35.40536797 90.71467594 32.47145346 74 30.1875 C73.06379822 30.05865417 72.12759644 29.92980835 71.1630249 29.79705811 C41.63751339 25.76319669 12.50436531 24.95016738 -17.24707031 25.35498047 Z " fill="#FEFCFC" transform="translate(547.125,36.6875)"/>
<path d="M0 0 C1.08632469 -0.00832352 1.08632469 -0.00832352 2.19459534 -0.01681519 C4.57897961 -0.02858758 6.96145295 -0.00436385 9.34570312 0.02148438 C11.00809645 0.02319623 12.67049247 0.02312904 14.33288574 0.0213623 C17.81317042 0.02301417 21.29280988 0.04168674 24.77294922 0.07324219 C29.2285333 0.11291973 33.68327271 0.11728668 38.13899994 0.10977936 C41.57061467 0.10670623 45.00204037 0.11884232 48.43360901 0.13591003 C50.07620558 0.14292911 51.71882358 0.14606589 53.36143494 0.1452179 C55.65931737 0.14702062 57.95619768 0.16844133 60.25390625 0.1953125 C61.56008911 0.20373169 62.86627197 0.21215088 64.21203613 0.2208252 C67.94603301 0.65208682 69.74454903 1.22205363 72.62695312 3.61523438 C75.32548595 7.81794777 75.99802547 11.05219134 75.97998047 16.00024414 C75.98363617 17.24495987 75.98729187 18.4896756 75.99105835 19.77210999 C75.98625835 20.4294771 75.98145836 21.08684422 75.97651291 21.76413155 C75.96268678 23.83720531 75.96926126 25.9093313 75.98135376 27.98240662 C76.01220098 33.87204437 76.00741967 39.76145477 75.98730469 45.65112305 C75.97637362 49.26335854 75.98959933 52.87487695 76.01720047 56.48701286 C76.02262938 57.85888157 76.01860663 59.23082253 76.0048027 60.60263252 C75.50857245 68.88993751 75.50857245 68.88993751 79.03955078 75.93139648 C82.6570591 78.28561001 84.41615735 78.74048995 88.70046711 78.74272633 C89.78121834 78.74573397 90.86196957 78.74874162 91.97547084 78.75184041 C93.17242853 78.75009004 94.36938622 78.74833967 95.60261536 78.74653625 C97.49873874 78.74970983 97.49873874 78.74970983 99.43316764 78.75294751 C102.21693482 78.75755429 105.00067975 78.75896347 107.78445053 78.75798225 C112.31320321 78.75639294 116.84193371 78.76158413 121.37068176 78.76760864 C127.94589545 78.77573013 134.52110524 78.78066839 141.09632301 78.78389931 C151.4860002 78.78938967 161.87564444 78.80628072 172.26530457 78.82524109 C175.8177957 78.83159817 179.37028692 78.83790655 182.92277813 78.84421825 C184.25457517 78.8465939 184.25457517 78.8465939 185.6132772 78.84901753 C195.72533673 78.8669627 205.83739859 78.88318499 215.94946289 78.89819336 C216.87411091 78.89956923 217.79875894 78.9009451 218.7514266 78.90236267 C233.73732836 78.92429514 248.72322167 78.9350492 263.70913664 78.94256411 C279.08534083 78.95063032 294.46147245 78.97390491 309.83763522 79.01051778 C319.32701989 79.03256562 328.81625545 79.04220047 338.30566444 79.03601744 C344.80753458 79.03284697 351.30927722 79.04414562 357.81110791 79.06691185 C361.56465107 79.07960122 365.31791029 79.08572377 369.07146454 79.07449532 C373.1380115 79.06248669 377.20383391 79.08120073 381.27033997 79.10298157 C382.46060549 79.09453903 383.65087102 79.08609649 384.87720519 79.07739812 C392.85530199 79.15677707 392.85530199 79.15677707 396.83674145 81.52225018 C399.33486891 84.44287759 399.7564578 86.04678491 399.81982422 89.80200195 C399.84391861 91.0989373 399.84391861 91.0989373 399.86849976 92.42207336 C399.91295921 96.3781354 399.95401492 100.33402975 399.97705078 104.2902832 C399.99361061 106.37665969 400.0209009 108.46297944 400.05908203 110.54907227 C400.11385576 113.55710277 400.13572554 116.56380355 400.15039062 119.57226562 C400.17306 120.50263138 400.19572937 121.43299713 400.21908569 122.39155579 C400.20407941 126.99384354 400.14534211 128.95528977 397.21923828 132.68041992 C393.62724523 135.36139044 391.95679965 135.74017864 387.53782177 135.73993301 C385.91146983 135.74351944 385.91146983 135.74351944 384.25226229 135.74717832 C383.05141366 135.74474582 381.85056502 135.74231333 380.61332703 135.73980713 C379.34516122 135.74121728 378.07699542 135.74262743 376.77040035 135.74408031 C373.97761924 135.74714676 371.18486194 135.7470262 368.39208031 135.744524 C363.84867089 135.74047367 359.30528021 135.74322863 354.76187134 135.74687195 C349.02143658 135.75096638 343.28100599 135.75320167 337.54056976 135.75328794 C326.26122448 135.75349043 314.98192232 135.7659359 303.70259094 135.78289795 C301.92821764 135.78550379 300.15384433 135.7881026 298.379471 135.79069448 C295.69013906 135.79463299 293.00080713 135.79857949 290.31147524 135.8025557 C280.16671762 135.81750902 270.02195867 135.83113003 259.87719727 135.84326172 C258.48573931 135.84493206 258.48573931 135.84493206 257.06617109 135.84663615 C242.03176268 135.86421337 226.99738117 135.86708016 211.9629642 135.86541131 C196.53703116 135.86413308 181.11119847 135.88184755 165.68530399 135.91642928 C156.1651757 135.93710397 146.64528747 135.94239814 137.12514637 135.92810097 C130.60223161 135.91965333 124.0795038 135.92934328 117.55662855 135.95341048 C113.79087441 135.96674202 110.02556842 135.97186599 106.25981712 135.95528984 C102.18000802 135.93752955 98.10130375 135.95820663 94.02153015 135.98272705 C92.82737368 135.97137167 91.6332172 135.96001629 90.40287417 135.94831681 C85.59610248 136.0047535 82.54669113 136.05456447 78.39155388 138.58752537 C75.97336032 142.73667151 75.93324359 145.96306485 75.99876404 150.69108582 C75.99166965 151.60710156 75.98457526 152.52311731 75.97726589 153.46689111 C75.95965725 156.53784255 75.97780596 159.60753313 75.99584961 162.6784668 C75.99071173 164.87970558 75.98343145 167.08094025 75.97416687 169.28216553 C75.95562277 175.26390945 75.96861295 181.24520867 75.98825717 187.22693419 C76.00463026 193.4883157 75.99583215 199.74966873 75.99073792 206.01106262 C75.98621381 216.53193448 76.00199792 227.05265914 76.0300293 237.57348633 C76.05883223 248.38410839 76.06596689 259.19447707 76.05053711 270.00512695 C76.0319531 283.04353007 76.03374071 296.08179714 76.05275154 309.12020302 C76.05961361 314.09405973 76.05859805 319.06782212 76.05120659 324.04167747 C76.0435252 329.90636003 76.05573089 335.77067904 76.0830555 341.63529968 C76.08992249 343.78385655 76.09005547 345.93244747 76.08283997 348.08100319 C76.07410243 351.02255811 76.09017462 353.96300226 76.11228943 356.90446472 C76.10404866 357.74738908 76.09580789 358.59031343 76.08731741 359.45878094 C76.27389323 372.97934021 84.12209388 382.55494989 93.41601562 391.59960938 C96.69265153 394.58678981 100.12507864 397.36131041 103.58007812 400.13867188 C106.93718481 402.86739705 110.22437939 405.66701357 113.50195312 408.49023438 C118.04968963 412.40380705 122.60661983 416.3052888 127.18945312 420.17773438 C127.98778564 420.85231689 127.98778564 420.85231689 128.80224609 421.54052734 C129.87408653 422.44591879 130.94602638 423.35119255 132.01806641 424.25634766 C134.72267602 426.54069623 137.4246744 428.82812945 140.12695312 431.11523438 C141.21027411 432.03191563 142.29360744 432.9485823 143.37695312 433.86523438 C185.62695312 469.61523438 185.62695312 469.61523438 227.87695312 505.36523438 C228.41368652 505.81914551 228.95041992 506.27305664 229.50341797 506.74072266 C230.58285789 507.65459435 231.66131504 508.56962817 232.73876953 509.48583984 C235.49962268 511.83093706 238.27640004 514.15130944 241.08789062 516.43554688 C251.28894016 524.77093909 261.28326242 534.18321546 262.90736008 548.00091553 C263.35957983 554.98029545 263.2514593 561.96922739 263.18554688 568.95898438 C263.18129063 571.21911343 263.17896751 573.47924687 263.17848206 575.73937988 C263.17234389 580.45308533 263.14976495 585.16631049 263.11401367 589.87988281 C263.06853545 595.92368351 263.05397498 601.96705319 263.05027676 608.01100922 C263.04585306 612.66752369 263.03056118 617.32394771 263.01140022 621.98042297 C263.00252249 624.20997882 262.99579032 626.43954428 262.99123955 628.66911316 C262.9822109 631.77566864 262.95983732 634.88183182 262.93334961 637.98828125 C262.93268494 638.90882294 262.93202026 639.82936462 262.93133545 640.77780151 C262.91637276 642.04740219 262.91637276 642.04740219 262.90110779 643.34265137 C262.89645728 644.07556145 262.89180677 644.80847153 262.88701534 645.563591 C262.58826855 647.92041888 261.79224332 649.56062386 260.62695312 651.61523438 C250.4009524 650.24937136 242.14201885 639.47397687 234.87695312 632.65039062 C231.87320638 629.83266359 228.80000764 627.11001531 225.68164062 624.41992188 C222.95770526 622.0274159 220.29355326 619.57114018 217.62695312 617.11523438 C213.66840513 613.47101277 209.67518338 609.87609534 205.61132812 606.34960938 C201.57320622 602.82022724 197.60780631 599.20889212 193.62695312 595.61523438 C191.96054461 594.11494758 190.2938796 592.61494565 188.62695312 591.11523438 C186.1019482 588.84352148 183.57782009 586.57088024 181.05664062 584.29492188 C177.31131057 580.9161073 173.56177105 577.54627472 169.75195312 574.24023438 C165.78520413 570.78739618 161.92012643 567.22646057 158.05151367 563.66479492 C154.64096506 560.53006386 151.18536197 557.45797136 147.68554688 554.42382812 C144.1725301 551.33743958 140.73395494 548.1689466 137.27929688 545.01757812 C135.10234317 543.04581593 132.90856638 541.101581 130.68945312 539.17773438 C126.74105838 535.74822519 122.89837854 532.20646614 119.05126953 528.66455078 C115.64078424 525.52992149 112.18527497 522.45789593 108.68554688 519.42382812 C105.1725301 516.33743958 101.73395494 513.1689466 98.27929688 510.01757812 C96.10234317 508.04581593 93.90856638 506.101581 91.68945312 504.17773438 C88.28006732 501.21639927 84.94901003 498.17370951 81.62695312 495.11523438 C77.66833127 491.47109109 73.67518553 487.8760972 69.61132812 484.34960938 C65.57320622 480.82022724 61.60780631 477.20889212 57.62695312 473.61523438 C55.96054461 472.11494758 54.2938796 470.61494565 52.62695312 469.11523438 C49.29361979 466.11523438 45.96028646 463.11523438 42.62695312 460.11523438 C41.80453125 459.3753125 40.98210937 458.63539063 40.13476562 457.87304688 C38.44102418 456.34815193 36.74834144 454.82208036 35.05664062 453.29492188 C31.31131057 449.9161073 27.56177105 446.54627472 23.75195312 443.24023438 C19.78729317 439.78921457 15.91969328 436.23468811 12.06030273 432.66699219 C9.20261915 430.03192048 6.29781691 427.48119831 3.31445312 424.99023438 C-4.38571331 418.26659632 -10.32037928 409.75011274 -12.37304688 399.61523438 C-12.46817986 397.40632065 -12.50574067 395.19472274 -12.51006126 392.9837656 C-12.51271309 392.31542898 -12.51536492 391.64709235 -12.5180971 390.9585031 C-12.52578376 388.70902069 -12.52634903 386.45959293 -12.52694702 384.21009827 C-12.53096202 382.5850371 -12.53540031 380.95997693 -12.54022658 379.33491796 C-12.55219302 374.86138906 -12.55784065 370.38787094 -12.56240773 365.91432917 C-12.56836326 361.09284738 -12.57997295 356.27137849 -12.59069824 351.4499054 C-12.61521889 339.80443974 -12.62984659 328.15896982 -12.64275831 316.5134863 C-12.64646975 313.22584873 -12.65044299 309.93821159 -12.65451097 306.65057445 C-12.67974117 286.24442289 -12.70179895 265.83827068 -12.71423912 245.43210697 C-12.7171689 240.7057959 -12.72013056 235.97948485 -12.72314453 231.25317383 C-12.72389058 230.07844517 -12.72463663 228.9037165 -12.72540529 227.69339 C-12.73806975 208.64658963 -12.77130824 189.59988237 -12.81294636 170.55312557 C-12.85532177 151.00940969 -12.87892885 131.46574156 -12.88415968 111.92197984 C-12.88757821 100.94419536 -12.89938585 89.96655656 -12.93226242 78.98881721 C-12.96020338 69.64376272 -12.97128838 60.29888377 -12.96006696 50.95379073 C-12.95486553 46.18350052 -12.95786313 41.41357828 -12.9825325 36.64334106 C-13.00491455 32.2791169 -13.00437192 27.9155274 -12.98532863 23.55129295 C-12.98251307 21.96989872 -12.98821295 20.38846245 -13.00314157 18.80713619 C-13.02216428 16.66149327 -13.01052003 14.51813317 -12.99107933 12.37254429 C-12.99243586 11.1797327 -12.99379239 9.98692111 -12.99519002 8.75796372 C-11.55649492 1.49045731 -6.74106149 -0.01060275 0 0 Z " fill="#FDFDFD" transform="translate(268.373046875,271.384765625)"/>
<path d="M0 0 C0.69320343 -0.00671722 1.38640686 -0.01343445 2.10061646 -0.02035522 C4.38762622 -0.03932144 6.6743423 -0.0432587 8.96142578 -0.04541016 C10.55559407 -0.05183915 12.14976118 -0.05856759 13.743927 -0.06558228 C17.08452082 -0.07755165 20.42501125 -0.08126346 23.765625 -0.08007812 C28.03845629 -0.07987498 32.31062216 -0.10717383 36.58329582 -0.14162254 C39.8759361 -0.16390125 43.16841649 -0.16791537 46.46112442 -0.16685867 C48.03594378 -0.1692133 49.61076764 -0.1780291 51.18551254 -0.19352341 C53.39237303 -0.21320387 55.5978021 -0.20733886 57.8046875 -0.1953125 C59.05837128 -0.19816254 60.31205505 -0.20101257 61.60372925 -0.20394897 C65.81077265 0.40289987 67.84351722 1.48533239 71.03173828 4.29052734 C74.52410613 10.4679304 74.45747659 16.10757936 74.41941833 23.09231567 C74.42749664 24.86999921 74.42749664 24.86999921 74.43573815 26.68359554 C74.44754562 29.9606482 74.44595748 33.23737364 74.43857133 36.51442909 C74.43383428 40.05380727 74.44635454 43.59313132 74.45658875 47.13249207 C74.47377407 54.06285659 74.47461698 60.99313044 74.46937584 67.92351075 C74.46533088 73.56016025 74.46678159 79.19678301 74.4721241 84.83343124 C74.47287252 85.63635954 74.47362094 86.43928783 74.47439205 87.26654729 C74.47592357 88.89786905 74.47746192 90.5291908 74.47900701 92.16051255 C74.49273216 107.45634415 74.48729523 122.75212459 74.4758218 138.04795502 C74.46589881 152.02264212 74.47881386 165.99719664 74.50275599 179.97186328 C74.52717856 194.33574907 74.53674653 208.69957319 74.53010327 223.0634793 C74.52661684 231.12168536 74.52880441 239.17978959 74.54635429 247.23797989 C74.56111621 254.10104918 74.56166035 260.96394503 74.54428338 267.82701106 C74.53580186 271.32438901 74.53355299 274.82145766 74.54893494 278.31881905 C74.56218058 282.12178049 74.55056383 285.92391077 74.53294373 289.72683716 C74.54254873 290.81646134 74.55215374 291.90608551 74.56204981 293.0287286 C74.42259812 307.73842603 69.27088977 319.04146138 59.09423828 329.47802734 C55.91779817 332.52692397 52.63469794 335.43916244 49.29736328 338.31005859 C46.49857518 340.75658544 43.76485693 343.27131234 41.03173828 345.79052734 C37.09909885 349.41165248 33.12959253 352.98012148 29.09033203 356.48193359 C26.54217178 358.72063985 24.03763235 361.00462946 21.53173828 363.29052734 C18.41266817 366.13576963 15.28418437 368.96252315 12.09423828 371.72802734 C8.68485248 374.68936245 5.35379518 377.73205221 2.03173828 380.79052734 C-1.92688358 384.43467063 -5.92002932 388.02966452 -9.98388672 391.55615234 C-14.02200863 395.08553448 -17.98740853 398.6968696 -21.96826172 402.29052734 C-23.63467023 403.79081413 -25.30133525 405.29081607 -26.96826172 406.79052734 C-27.79326172 407.53302734 -28.61826172 408.27552734 -29.46826172 409.04052734 C-36.96826172 415.79052734 -36.96826172 415.79052734 -39.46044922 418.03271484 C-41.15419066 419.55760979 -42.84687341 421.08368136 -44.53857422 422.61083984 C-48.28390428 425.98965442 -52.03344379 429.359487 -55.84326172 432.66552734 C-59.27158364 435.6496942 -62.62446973 438.71241218 -65.96826172 441.79052734 C-69.92690821 445.4346445 -73.9200286 449.0296639 -77.98388672 452.55615234 C-82.02200863 456.08553448 -85.98740853 459.6968696 -89.96826172 463.29052734 C-91.63467023 464.79081413 -93.30133525 466.29081607 -94.96826172 467.79052734 C-95.79326172 468.53302734 -96.61826172 469.27552734 -97.46826172 470.04052734 C-104.96826172 476.79052734 -104.96826172 476.79052734 -107.46044922 479.03271484 C-109.15419066 480.55760979 -110.84687341 482.08368136 -112.53857422 483.61083984 C-116.28390428 486.98965442 -120.03344379 490.359487 -123.84326172 493.66552734 C-127.27158364 496.6496942 -130.62446973 499.71241218 -133.96826172 502.79052734 C-137.92690821 506.4346445 -141.9200286 510.0296639 -145.98388672 513.55615234 C-150.02200863 517.08553448 -153.98740853 520.6968696 -157.96826172 524.29052734 C-159.63467023 525.79081413 -161.30133525 527.29081607 -162.96826172 528.79052734 C-163.79326172 529.53302734 -164.61826172 530.27552734 -165.46826172 531.04052734 C-172.96826172 537.79052734 -172.96826172 537.79052734 -175.46044922 540.02880859 C-177.15936889 541.56101185 -178.85190888 543.10031342 -180.53857422 544.64599609 C-194.39037227 557.29052734 -194.39037227 557.29052734 -198.90576172 557.29052734 C-200.96826172 556.29052734 -200.96826172 556.29052734 -201.96826172 554.29052734 C-202.06584231 552.95741777 -202.10325669 551.61962403 -202.10870361 550.28295898 C-202.11441376 549.4448317 -202.1201239 548.60670441 -202.12600708 547.74317932 C-202.12712494 546.82165573 -202.1282428 545.90013214 -202.12939453 544.95068359 C-202.13435944 543.98134384 -202.13932434 543.01200409 -202.1444397 542.01329041 C-202.15909159 538.79319557 -202.16587048 535.5731501 -202.17138672 532.35302734 C-202.17713834 530.11539712 -202.18289607 527.87776691 -202.18865967 525.64013672 C-202.19918007 520.93912526 -202.20501506 516.23813095 -202.20849609 511.53710938 C-202.21396467 505.52947665 -202.23795329 499.52207242 -202.26646805 493.51451111 C-202.28515103 488.88693598 -202.29030318 484.25941507 -202.29183197 479.63180542 C-202.29484929 477.41835285 -202.30284657 475.20490103 -202.31601715 472.9914856 C-202.33318594 469.8826601 -202.33117025 466.77438179 -202.32470703 463.66552734 C-202.33852921 462.30753273 -202.33852921 462.30753273 -202.35263062 460.92210388 C-202.27291047 448.60173798 -197.81087465 438.3165033 -189.22998047 429.46630859 C-183.73500164 424.25323976 -177.84501057 419.48349395 -171.94873047 414.73583984 C-168.39535766 411.82049072 -164.93099617 408.81243959 -161.46826172 405.79052734 C-156.33618401 401.31496027 -151.13639962 396.95044851 -145.84326172 392.66552734 C-142.33278533 389.76556859 -138.89993445 386.78294596 -135.46826172 383.79052734 C-130.33598515 379.31518218 -125.13640898 374.95045608 -119.84326172 370.66552734 C-116.33278533 367.76556859 -112.89993445 364.78294596 -109.46826172 361.79052734 C-104.33598515 357.31518218 -99.13640898 352.95045608 -93.84326172 348.66552734 C-90.33278533 345.76556859 -86.89993445 342.78294596 -83.46826172 339.79052734 C-78.33598515 335.31518218 -73.13640898 330.95045608 -67.84326172 326.66552734 C-63.66925998 323.21743895 -59.60061545 319.65142252 -55.52172852 316.09179688 C-51.82914975 312.87754604 -48.09455009 309.73636993 -44.28076172 306.66552734 C-25.19421881 291.74501685 -25.19421881 291.74501685 -15.96826172 270.29052734 C-15.8238427 266.74779411 -15.83074095 263.2081303 -15.83695984 259.6628418 C-15.83484412 258.59205792 -15.83272841 257.52127405 -15.83054858 256.41804218 C-15.82455695 252.82995404 -15.82554813 249.24190114 -15.82641602 245.65380859 C-15.82338405 243.08141012 -15.81986249 240.50901218 -15.81588745 237.93661499 C-15.80778622 232.39714567 -15.80283476 226.85768093 -15.79959679 221.31820679 C-15.79409256 212.56197173 -15.77718826 203.80577545 -15.758255 195.04956055 C-15.75189886 192.05229193 -15.74559037 189.05502322 -15.73927784 186.05775452 C-15.73769408 185.30878204 -15.73611031 184.55980956 -15.73447856 183.78814095 C-15.71655307 175.26843138 -15.70032022 166.74871909 -15.68530273 158.22900391 C-15.68392686 157.45042971 -15.68255099 156.67185551 -15.68113343 155.86968815 C-15.65919017 143.24499872 -15.64844325 130.62031931 -15.64093199 117.99561417 C-15.63286209 105.02958794 -15.60957842 92.06364769 -15.57297832 79.09767056 C-15.55095408 71.10203094 -15.54128838 63.1065681 -15.54747865 55.11089969 C-15.55102724 48.98603892 -15.53379791 42.86139841 -15.50880051 36.73659134 C-15.50186729 34.22352666 -15.50178491 31.7104325 -15.50900078 29.19736862 C-15.51784767 25.77063981 -15.50226163 22.34486411 -15.48051453 18.91821289 C-15.49317833 17.42142486 -15.49317833 17.42142486 -15.50609797 15.89439869 C-15.43734812 10.04894697 -14.81835086 6.76802633 -10.96826172 2.29052734 C-7.57809093 -0.24458851 -4.13417667 0.0251717 0 0 Z " fill="#FDFCFC" transform="translate(772.96826171875,365.70947265625)"/>
<path d="M0 0 C1.2886575 -0.00551503 1.2886575 -0.00551503 2.60334849 -0.01114148 C5.49906038 -0.02220641 8.39473642 -0.02602691 11.29046631 -0.02983093 C13.35981867 -0.03609345 15.42916991 -0.04274006 17.4985199 -0.04974365 C23.13291824 -0.06717287 28.76730809 -0.07771061 34.40172672 -0.08594918 C37.91982484 -0.09109518 41.4379203 -0.09717108 44.95601654 -0.10346031 C55.95723671 -0.12251759 66.95845015 -0.13674769 77.95968366 -0.14507228 C90.67003616 -0.15484821 103.38021467 -0.18117487 116.09050584 -0.22157317 C125.90712072 -0.25170637 135.72368566 -0.2665385 145.54034591 -0.26985329 C151.40694243 -0.27220694 157.27335319 -0.28120835 163.13990021 -0.30631447 C168.65893291 -0.32955124 174.17765696 -0.33384604 179.69672585 -0.32355309 C181.72281481 -0.32305655 183.74891875 -0.32941158 185.77496147 -0.34310913 C188.54069443 -0.36076177 191.3053118 -0.35375456 194.07104492 -0.34057617 C194.87319372 -0.35154542 195.67534253 -0.36251466 196.50179887 -0.37381631 C201.69018682 -0.31411343 204.7196806 0.64613791 208.78948975 4.14717102 C211.50898098 7.66075667 211.07164793 11.80040126 211.05018616 16.05996704 C211.0540117 16.86290559 211.05783725 17.66584415 211.06177872 18.49311417 C211.07210732 21.18686681 211.06811682 23.88040623 211.06414795 26.57417297 C211.06849456 28.50426938 211.07367754 30.43436407 211.07963562 32.36445618 C211.09304388 37.61040918 211.09360214 42.85629021 211.09107232 48.10225701 C211.09000362 52.4809522 211.09488351 56.85963276 211.09967774 61.23832482 C211.11077974 71.56952358 211.11120676 81.90068598 211.10516357 92.23188782 C211.09912531 102.88939808 211.1114295 113.54677626 211.13273364 124.20426399 C211.15035015 133.35343147 211.15635083 142.50255691 211.1530959 151.65174073 C211.15128262 157.11643861 211.15392353 162.58104234 211.16781044 168.04572487 C211.18038452 173.18638835 211.17844855 178.3268461 211.16539955 183.46750641 C211.16303313 185.35287483 211.1657708 187.2382577 211.17402267 189.12360954 C211.18448652 191.70045284 211.17639244 194.27660543 211.16371155 196.85342407 C211.17108583 197.59682252 211.17846012 198.34022096 211.18605787 199.10614663 C211.10332279 207.11612033 208.07308628 212.44064107 202.75238037 218.23213196 C199.60511496 221.30267298 196.15696295 223.78764052 192.53948975 226.27217102 C190.93851263 227.40006064 189.33827615 228.52900215 187.7387085 229.65888977 C186.92063721 230.23300598 186.10256592 230.80712219 185.25970459 231.39863586 C181.24888234 234.23768597 177.30119585 237.16081826 173.35198975 240.08467102 C171.7596016 241.26053322 170.16715344 242.43631415 168.574646 243.61201477 C167.78461182 244.19579895 166.99457764 244.77958313 166.18060303 245.38105774 C162.21957812 248.30673205 158.25433257 251.22667408 154.28948975 254.14717102 C152.70613596 255.31380992 151.12280263 256.4804766 149.53948975 257.64717102 C146.37282308 259.98050435 143.20615641 262.31383769 140.03948975 264.64717102 C139.25501465 265.22539612 138.47053955 265.80362122 137.66229248 266.39936829 C136.08702002 267.55971148 134.51101646 268.71906282 132.93426514 269.87739563 C128.84588364 272.88287422 124.77361454 275.90723218 120.7230835 278.96357727 C119.46818115 279.90427063 119.46818115 279.90427063 118.18792725 280.8639679 C116.60624739 282.05022778 115.02901913 283.24245926 113.4574585 284.4420929 C107.34963782 289.0067142 100.80986413 293.52331982 93.16448975 294.70967102 C85.93049692 293.50400555 80.36207727 289.32997807 74.85198975 284.70967102 C73.54091587 283.63501214 72.22835873 282.56216082 70.91448975 281.49092102 C70.239021 280.93920227 69.56355225 280.38748352 68.86761475 279.81904602 C65.41755389 277.04343315 61.88324493 274.38066051 58.35198975 271.70967102 C51.97008346 266.86677229 45.72216899 261.88402753 39.52362061 256.8092804 C33.96689638 252.26779955 28.30386864 247.88779991 22.59857178 243.53388977 C18.22521659 240.18157433 13.87741776 236.79576458 9.53900146 233.39839172 C5.97068319 230.60567915 2.39275771 227.8387664 -1.2612915 225.15888977 C-1.88850098 224.69023499 -2.51571045 224.2215802 -3.16192627 223.73872375 C-4.30422557 222.88668973 -5.4561665 222.04731747 -6.62042236 221.22554016 C-12.01234797 217.15797649 -16.318402 211.24789098 -17.7664547 204.59168243 C-17.97651881 201.89779861 -18.01098012 199.26196458 -17.9710083 196.56025696 C-17.97991592 195.55406311 -17.98882355 194.54786926 -17.9980011 193.51118469 C-18.01914519 190.21729299 -17.99705735 186.92538703 -17.972229 183.63154602 C-17.97373279 181.32850445 -17.97716617 179.0254634 -17.98243713 176.72242737 C-17.98675702 171.91094829 -17.97001151 167.10014217 -17.93780518 162.28877258 C-17.89793663 156.12597236 -17.90736734 149.96442698 -17.93204021 143.80158615 C-17.94622576 139.05227889 -17.93613592 134.30326449 -17.9185276 129.55397797 C-17.91268516 127.28141733 -17.91396924 125.00882666 -17.92255211 122.73627472 C-17.93055157 119.56234092 -17.90628387 116.39024524 -17.87335205 113.21650696 C-17.88190216 112.28131226 -17.89045227 111.34611755 -17.89926147 110.38258362 C-17.82095489 106.00553192 -17.60020825 103.05814032 -14.79408264 99.58033752 C-10.98110304 95.98933528 -9.15088346 96.01956086 -3.99862671 96.00241089 C-3.35453885 95.99888404 -2.71045099 95.9953572 -2.04684532 95.99172348 C0.12110036 95.98101063 2.28900215 95.97735104 4.45697021 95.97358704 C6.0074075 95.96728375 7.55784296 95.96051821 9.10827637 95.95332336 C12.45206195 95.9386379 15.79584046 95.92691949 19.13964462 95.91737556 C24.4253138 95.90194667 29.71092268 95.87799785 34.99655151 95.85247803 C50.02856643 95.7812121 65.06061591 95.72147348 80.0927124 95.67036438 C88.39093905 95.64207498 96.68910573 95.60670132 104.98726952 95.56371063 C110.24307491 95.53691216 115.49881245 95.51902297 120.75467277 95.50767338 C124.023898 95.49855526 127.29304074 95.48119713 130.56221771 95.46149445 C132.07955505 95.45401333 133.59691354 95.44993755 135.11426926 95.44949913 C137.18422324 95.44841801 139.25375671 95.43518337 141.32363892 95.41891479 C142.48250044 95.41468286 143.64136196 95.41045092 144.8353405 95.40609074 C147.73273274 95.15214555 149.38903597 94.75090462 151.78948975 93.14717102 C154.07810659 89.13959107 154.1107532 85.08705782 154.12542725 80.58076477 C154.13208405 79.86485672 154.13874084 79.14894867 154.14559937 78.41134644 C154.15568499 76.90445004 154.16041766 75.39750934 154.16009521 73.89057922 C154.16448341 71.58799578 154.20088219 69.28730834 154.2387085 66.98506165 C154.24457466 65.51696921 154.24854539 64.04886772 154.25042725 62.58076477 C154.2719838 61.55250832 154.2719838 61.55250832 154.29397583 60.503479 C154.2620632 57.1622371 154.00522475 55.42861052 151.94818115 52.74507141 C148.19837152 49.96939803 145.06940199 50.02085951 140.54000854 50.01586914 C139.23050232 50.01186096 137.92099609 50.00785278 136.57180786 50.00372314 C135.11718748 50.00419824 133.66256712 50.00473435 132.20794678 50.00532532 C130.67868957 50.0022938 129.14943327 49.99877236 127.62017822 49.99479675 C124.32497177 49.98690715 121.02977614 49.98176262 117.73456192 49.97850609 C112.5241489 49.97259781 107.31380425 49.95605947 102.10342407 49.93716431 C100.31994061 49.93082693 98.5364571 49.92450131 96.75297356 49.91818714 C95.85980234 49.91502133 94.96663112 49.91185552 94.04639411 49.90859377 C81.91503573 49.86650661 69.78370925 49.83353577 57.65228271 49.82124329 C49.4704579 49.81286763 41.28880236 49.79039609 33.10706222 49.75188762 C28.77697586 49.73211147 24.44714263 49.71972753 20.11700821 49.72472191 C16.04407092 49.72936247 11.97161369 49.71559583 7.89877319 49.68770981 C6.4044337 49.68078822 4.91004467 49.68068191 3.41570663 49.68791008 C1.37478104 49.69678475 -0.66620858 49.67877122 -2.70706177 49.65942383 C-4.4199001 49.6558413 -4.4199001 49.6558413 -6.16734123 49.65218639 C-10.46093632 48.93966221 -12.98183126 46.85571535 -15.49761963 43.3573761 C-17.15779519 38.2102633 -16.66332277 32.50246155 -16.690979 27.1308136 C-16.71036652 24.85156918 -16.77242 22.57595779 -16.83551025 20.29756165 C-17.01163461 8.08330366 -17.01163461 8.08330366 -13.30426025 3.66670227 C-8.70458911 -0.07924203 -5.73890975 -0.0013045 0 0 Z " fill="#FDFDFD" transform="translate(454.21051025390625,438.8528289794922)"/>
<path d="M0 0 C1.55427704 -0.01292336 1.55427704 -0.01292336 3.13995361 -0.02610779 C6.56824662 -0.04882714 9.99572613 -0.04201737 13.42407227 -0.03295898 C15.80534611 -0.03819208 18.18661787 -0.0444674 20.56788635 -0.05174255 C25.56049345 -0.06215797 30.55281573 -0.05756892 35.54541016 -0.04296875 C41.94606197 -0.02578402 48.34581587 -0.0492675 54.74636745 -0.08445835 C59.66459614 -0.10641082 64.5826093 -0.10499591 69.50087166 -0.09669304 C71.86079963 -0.09587226 74.22074323 -0.10275966 76.58062553 -0.11746407 C79.87983373 -0.13486825 83.17741982 -0.1203998 86.4765625 -0.09765625 C87.94096519 -0.11519455 87.94096519 -0.11519455 89.43495178 -0.13308716 C93.99220118 -0.06911245 96.1432532 0.05071004 99.90893555 2.80615234 C101.77335544 5.49079202 102.42972809 6.60882606 102.43408203 9.80126953 C102.44661514 10.60883194 102.45914825 11.41639435 102.47206116 12.24842834 C102.45880295 13.10689865 102.44554474 13.96536896 102.43188477 14.84985352 C102.43429672 15.74332993 102.43670868 16.63680634 102.43919373 17.55735779 C102.43821663 19.44095308 102.4248559 21.32457757 102.39990234 23.20800781 C102.36554624 26.09026547 102.37926117 28.96946391 102.39868164 31.85180664 C102.39178417 33.68450197 102.38211268 35.5171894 102.36938477 37.34985352 C102.37682457 38.64059532 102.37682457 38.64059532 102.38441467 39.95741272 C102.36857834 40.76182297 102.352742 41.56623322 102.33642578 42.39501953 C102.3302272 43.09941666 102.32402863 43.80381378 102.31764221 44.52955627 C101.50411641 47.69709469 100.53314373 48.6833567 97.80297852 50.53344727 C94.33574097 51.13488693 90.90214437 51.07945402 87.390625 51.05102539 C85.80226837 51.06153931 85.80226837 51.06153931 84.18182373 51.07226562 C80.67897379 51.08988214 77.17693053 51.07821011 73.67407227 51.06469727 C71.24316757 51.06739091 68.81226392 51.07127226 66.38136292 51.07629395 C61.28620142 51.08219381 56.19132033 51.07360918 51.09619141 51.05493164 C44.5564441 51.03213017 38.01735294 51.04527036 31.47762966 51.0692215 C26.45826751 51.08365567 21.43906168 51.07908455 16.4196949 51.06871033 C14.00788356 51.0660371 11.59605814 51.06933362 9.18426323 51.07862854 C5.81777049 51.0887559 2.45235009 51.07334585 -0.9140625 51.05102539 C-2.41730324 51.06317078 -2.41730324 51.06317078 -3.95091248 51.07556152 C-4.86639862 51.06428223 -5.78188477 51.05300293 -6.72511292 51.04138184 C-7.52095574 51.03987373 -8.31679857 51.03836563 -9.13675785 51.03681183 C-11.19702148 50.53344727 -11.19702148 50.53344727 -12.95228577 48.62973785 C-14.34319301 46.28727614 -14.58094934 44.9884758 -14.60107422 42.28735352 C-14.61375839 41.45969482 -14.62644257 40.63203613 -14.63951111 39.77929688 C-14.63657547 38.8937915 -14.63363983 38.00828613 -14.63061523 37.09594727 C-14.63847801 35.72031616 -14.63847801 35.72031616 -14.64649963 34.31689453 C-14.65291554 32.3803 -14.65158842 30.44366648 -14.64306641 28.50708008 C-14.63455126 25.54381007 -14.66333162 22.58246462 -14.69506836 19.61938477 C-14.69668036 17.73657284 -14.69610287 15.85375751 -14.69311523 13.97094727 C-14.70434921 13.08544189 -14.71558319 12.19993652 -14.72715759 11.28759766 C-14.71777664 10.45993896 -14.70839569 9.63228027 -14.69873047 8.77954102 C-14.69848122 7.69177368 -14.69848122 7.69177368 -14.69822693 6.58203125 C-12.87224654 -0.88132379 -6.27619116 -0.04186647 0 0 Z " fill="#BC251E" transform="translate(507.197021484375,577.466552734375)"/>
<path d="M0 0 C0.69320343 -0.00686325 1.38640686 -0.0137265 2.10061646 -0.02079773 C4.38776245 -0.03906961 6.67422258 -0.03522731 8.96142578 -0.02954102 C10.55559512 -0.03410333 12.14976249 -0.03940905 13.743927 -0.04542542 C17.08457428 -0.05435775 20.42498253 -0.0519329 23.765625 -0.04199219 C28.03849415 -0.03051417 32.31053543 -0.0506947 36.58329582 -0.07990932 C39.87595836 -0.0982933 43.16842342 -0.09797434 46.46112442 -0.0922718 C48.03593226 -0.09211879 49.61075365 -0.0981465 51.18551254 -0.11056328 C53.39242527 -0.12551042 55.59782091 -0.11477054 57.8046875 -0.09765625 C59.05837128 -0.09749008 60.31205505 -0.09732391 61.60372925 -0.09715271 C65.69297024 0.50073073 67.83580563 1.82639053 71.03173828 4.40405273 C73.16197374 7.59940592 73.29187637 8.47054234 73.33813477 12.14746094 C73.35412216 13.10888504 73.37010956 14.07030914 73.38658142 15.06086731 C73.39194412 16.09837631 73.39730682 17.13588531 73.40283203 18.20483398 C73.4118605 19.2739653 73.42088898 20.34309662 73.43019104 21.44462585 C73.44470669 23.70833531 73.45358353 25.97208686 73.45727539 28.23583984 C73.46915742 31.69302488 73.51832035 35.14841714 73.56884766 38.60522461 C73.57831345 40.80508569 73.58554774 43.00495774 73.59033203 45.20483398 C73.60986435 46.23627029 73.62939667 47.2677066 73.64952087 48.33039856 C73.5992597 56.3593189 73.5992597 56.3593189 70.80932617 59.97900391 C66.17108164 64.02854974 62.39366338 64.65528208 56.31713867 64.69458008 C55.33563591 64.70465591 55.33563591 64.70465591 54.33430481 64.7149353 C52.18258971 64.73385148 50.03118748 64.73783594 47.87939453 64.73999023 C46.37633641 64.74642173 44.87327953 64.75315035 43.370224 64.76016235 C40.22391864 64.77211849 37.07772295 64.77584481 33.93139648 64.7746582 C29.90856102 64.7744549 25.8864311 64.80177525 21.86376286 64.83620262 C18.76070451 64.8584857 15.65781574 64.86249536 12.55468559 64.86143875 C11.07197064 64.86379189 9.58925082 64.87259932 8.10661507 64.88810349 C6.02915684 64.90779737 3.9532174 64.90191471 1.87573242 64.88989258 C0.69612442 64.89274261 -0.48348358 64.89559265 -1.69883728 64.89852905 C-6.48019508 64.17538397 -9.61915291 61.93924551 -12.78076172 58.34155273 C-14.67548609 55.25016034 -15.09916403 52.66411342 -15.14526367 49.11962891 C-15.16451653 47.82764839 -15.16451653 47.82764839 -15.18415833 46.50956726 C-15.19154526 45.58142715 -15.19893219 44.65328705 -15.20654297 43.69702148 C-15.21865059 42.25979485 -15.21865059 42.25979485 -15.23100281 40.79353333 C-15.24483365 38.76520594 -15.25556028 36.73685538 -15.26342773 34.70849609 C-15.28063841 31.61372572 -15.32453341 28.52002437 -15.36865234 25.42553711 C-15.37877984 23.45353974 -15.38729577 21.48153331 -15.39404297 19.50952148 C-15.41155106 18.58745407 -15.42905914 17.66538666 -15.44709778 16.71537781 C-15.42824639 11.10438106 -14.79472065 7.80277883 -10.96826172 3.40405273 C-7.47783146 0.05491304 -4.75120134 0.02050221 0 0 Z " fill="#FDFCFC" transform="translate(772.96826171875,271.595947265625)"/>
</svg>
